<svg width="461" height="373" viewBox="0 0 461 373" version="1.1" xmlns="http://www.w3.org/2000/svg" xmlns:xlink="http://www.w3.org/1999/xlink">
<title>eventloop outline</title>
<desc>Created using Figma</desc>
<g id="Canvas" transform="translate(-2144 108)">
<g id="eventloop outline">
<g id="Page 1">
<g id="eventloop">
<g id="Layer 1">
<g id="Group">
<g id="Shape">
<use xlink:href="#path0_fill" transform="translate(2232.2 122.3)"/>
<mask id="mask0_outline_out">
<rect id="mask0_outline_inv" fill="white" x="-12" y="-13" width="91" height="94" transform="translate(2232.2 122.3)"/>
<use xlink:href="#path0_fill" fill="black" transform="translate(2232.2 122.3)"/>
</mask>
<g mask="url(#mask0_outline_out)">
<use xlink:href="#path1_stroke_2x" transform="translate(2232.2 122.3)" fill="#FFFFFF"/>
</g>
</g>
<g id="Shape">
<use xlink:href="#path2_fill" transform="translate(2228.4 -96)"/>
<mask id="mask1_outline_out">
<rect id="mask1_outline_inv" fill="white" x="-13" y="-12" width="88" height="93" transform="translate(2228.4 -96)"/>
<use xlink:href="#path2_fill" fill="black" transform="translate(2228.4 -96)"/>
</mask>
<g mask="url(#mask1_outline_out)">
<use xlink:href="#path3_stroke_2x" transform="translate(2228.4 -96)" fill="#FFFFFF"/>
</g>
</g>
<g id="Shape">
<use xlink:href="#path4_fill" transform="translate(2309.8 -94.7)"/>
<mask id="mask2_outline_out">
<rect id="mask2_outline_inv" fill="white" x="-12" y="-12" width="86" height="90" transform="translate(2309.8 -94.7)"/>
<use xlink:href="#path4_fill" fill="black" transform="translate(2309.8 -94.7)"/>
</mask>
<g mask="url(#mask2_outline_out)">
<use xlink:href="#path5_stroke_2x" transform="translate(2309.8 -94.7)" fill="#FFFFFF"/>
</g>
</g>
<g id="Shape">
<use xlink:href="#path6_fill" transform="translate(2250 -62)" fill="#FFD524"/>
<mask id="mask3_outline_out">
<rect id="mask3_outline_inv" fill="white" x="-13" y="-12" width="368" height="339" transform="translate(2250 -62)"/>
<use xlink:href="#path6_fill" fill="black" transform="translate(2250 -62)"/>
</mask>
<g mask="url(#mask3_outline_out)">
<use xlink:href="#path7_stroke_2x" transform="translate(2250 -62)" fill="#FFFFFF"/>
</g>
</g>
<g id="Shape">
<g id="Vector">
<use xlink:href="#path8_fill" transform="translate(2509 188.7)"/>
</g>
<g id="Vector">
<use xlink:href="#path9_fill" transform="translate(2543.2 188.7)"/>
</g>
</g>
<g id="Shape">
<use xlink:href="#path2_fill" transform="translate(2228.4 -96)"/>
</g>
<g id="Shape">
<use xlink:href="#path4_fill" transform="translate(2309.8 -94.7)"/>
</g>
<g id="Shape">
<use xlink:href="#path10_fill" transform="translate(2313.8 9.7)"/>
</g>
<g id="Shape">
<use xlink:href="#path11_fill" transform="translate(2396.5 9.5)"/>
</g>
<g id="Shape">
<use xlink:href="#path12_fill" transform="translate(2474 -8.7)"/>
</g>
<g id="Shape">
<use xlink:href="#path13_fill" transform="translate(2156 97.4)"/>
<mask id="mask4_outline_out">
<rect id="mask4_outline_inv" fill="white" x="-12" y="-12" width="87" height="116" transform="translate(2156 97.4)"/>
<use xlink:href="#path13_fill" fill="black" transform="translate(2156 97.4)"/>
</mask>
<g mask="url(#mask4_outline_out)">
<use xlink:href="#path14_stroke_2x" transform="translate(2156 97.4)" fill="#FFFFFF"/>
</g>
</g>
<g id="Shape">
<use xlink:href="#path0_fill" transform="translate(2232.2 122.3)"/>
</g>
<g id="Shape">
<use xlink:href="#path15_fill" transform="translate(2312.3 122.3)"/>
</g>
<g id="Shape">
<use xlink:href="#path16_fill" transform="translate(2396.5 122.2)"/>
</g>
<g id="Shape">
<use xlink:href="#path17_fill" transform="translate(2388.6 -61.9)"/>
</g>
</g>
</g>
</g>
</g>
</g>
</g>
<defs>
<path id="path0_fill" fill-rule="evenodd" d="M 32.8 68.2C 13.1 68.2 0 55.1 0 34.1C 0 13.1 13.1 -3.05176e-06 32.8 -3.05176e-06L 34.1 -3.05176e-06C 53.8 -3.05176e-06 66.9 13.1 66.9 34.1C 66.9 55.1 53.8 68.2 34.1 68.2L 32.8 68.2ZM 34.1 56.4C 45.9 56.4 53.8 48.5 53.8 34.1C 53.8 19.7 45.9 11.8 34.1 11.8L 32.8 11.8C 21 11.8 13.1 19.7 13.1 34.1C 13.1 48.5 21 56.4 32.8 56.4L 34.1 56.4Z"/>
<path id="path1_stroke_2x" d="M 32.8 56.2C 25.6789 56.2 20.7601 53.8928 17.6154 50.659C 14.4449 47.3987 12 42.081 12 34.1L -12 34.1C -12 47.119 -7.89486 58.8513 0.409576 67.391C 8.73987 75.9572 20.2211 80.2 32.8 80.2L 32.8 56.2ZM 12 34.1C 12 26.119 14.4449 20.8013 17.6154 17.541C 20.7601 14.3072 25.6789 12 32.8 12L 32.8 -12C 20.2211 -12 8.73987 -7.75721 0.409574 0.809018C -7.89486 9.34866 -12 21.081 -12 34.1L 12 34.1ZM 32.8 12L 34.1 12L 34.1 -12L 32.8 -12L 32.8 12ZM 34.1 12C 41.2211 12 46.1399 14.3072 49.2846 17.541C 52.4551 20.8013 54.9 26.119 54.9 34.1L 78.9 34.1C 78.9 21.081 74.7949 9.34866 66.4904 0.80902C 58.1601 -7.75721 46.6789 -12 34.1 -12L 34.1 12ZM 54.9 34.1C 54.9 42.0811 52.4551 47.3987 49.2846 50.659C 46.1399 53.8928 41.2211 56.2 34.1 56.2L 34.1 80.2C 46.6789 80.2 58.1601 75.9572 66.4904 67.391C 74.7949 58.8513 78.9 47.119 78.9 34.1L 54.9 34.1ZM 34.1 56.2L 32.8 56.2L 32.8 80.2L 34.1 80.2L 34.1 56.2ZM 34.1 68.4C 42.778 68.4 51.1388 65.4137 57.233 58.7454C 63.2199 52.1946 65.8 43.4321 65.8 34.1L 41.8 34.1C 41.8 39.1679 40.4301 41.5555 39.517 42.5546C 38.7112 43.4363 37.222 44.4 34.1 44.4L 34.1 68.4ZM 65.8 34.1C 65.8 24.7679 63.2199 16.0055 57.233 9.4546C 51.1388 2.78627 42.778 -0.2 34.1 -0.2L 34.1 23.8C 37.222 23.8 38.7112 24.7637 39.517 25.6454C 40.4301 26.6446 41.8 29.0321 41.8 34.1L 65.8 34.1ZM 34.1 -0.2L 32.8 -0.2L 32.8 23.8L 34.1 23.8L 34.1 -0.2ZM 32.8 -0.2C 24.122 -0.2 15.7612 2.78627 9.66699 9.4546C 3.68011 16.0055 1.1 24.7679 1.1 34.1L 25.1 34.1C 25.1 29.0321 26.4699 26.6446 27.383 25.6454C 28.1888 24.7637 29.678 23.8 32.8 23.8L 32.8 -0.2ZM 1.1 34.1C 1.1 43.4321 3.68011 52.1946 9.66699 58.7454C 15.7612 65.4137 24.122 68.4 32.8 68.4L 32.8 44.4C 29.678 44.4 28.1888 43.4363 27.383 42.5546C 26.4699 41.5555 25.1 39.1679 25.1 34.1L 1.1 34.1ZM 32.8 68.4L 34.1 68.4L 34.1 44.4L 32.8 44.4L 32.8 68.4Z"/>
<path id="path2_fill" fill-rule="evenodd" d="M -3.05176e-06 34.1C -3.05176e-06 15.7 9.2 5.96046e-09 31.5 5.96046e-09C 53.8 5.96046e-09 63 15.7 63 34.1L 63 38L 61.7 39.3L 15.8 39.3L 14.5 40.6C 14.5 43.2 15.8 56.3 32.9 56.3C 39.5 56.3 44.7 55 47.3 48.4L 48.6 47.1L 59.1 47.1L 60.4 48.4C 59.1 58.9 49.9 68.1 32.8 68.1C 10.5 68.2 -3.05176e-06 53.8 -3.05176e-06 34.1ZM 48.5 27.5C 48.5 23.6 47.2 11.7 31.4 11.7C 15.6 11.7 14.3 23.5 14.3 27.5L 15.6 28.8L 47.1 28.8L 48.5 27.5Z"/>
<path id="path3_stroke_2x" d="M 63 38L 71.4853 46.4853L 75 42.9706L 75 38L 63 38ZM 61.7 39.3L 61.7 51.3L 66.6705 51.3L 70.1853 47.7853L 61.7 39.3ZM 15.8 39.3L 15.8 27.3L 10.8294 27.3L 7.31473 30.8147L 15.8 39.3ZM 14.5 40.6L 6.01473 32.1147L 2.5 35.6294L 2.5 40.6L 14.5 40.6ZM 47.3 48.4L 38.8147 39.9147L 37.0499 41.6795L 36.1351 44.0017L 47.3 48.4ZM 48.6 47.1L 48.6 35.1L 43.6295 35.1L 40.1147 38.6147L 48.6 47.1ZM 59.1 47.1L 67.5853 38.6147L 64.0706 35.1L 59.1 35.1L 59.1 47.1ZM 60.4 48.4L 72.3091 49.8745L 73.0291 44.0586L 68.8853 39.9147L 60.4 48.4ZM 32.8 68.1L 32.8 56.1L 32.7731 56.1L 32.7462 56.1001L 32.8 68.1ZM 48.5 27.5L 56.6654 36.2935L 60.5 32.7328L 60.5 27.5L 48.5 27.5ZM 14.3 27.5L 2.3 27.5L 2.3 32.4706L 5.81472 35.9853L 14.3 27.5ZM 15.6 28.8L 7.11473 37.2853L 10.6294 40.8L 15.6 40.8L 15.6 28.8ZM 47.1 28.8L 47.1 40.8L 51.8123 40.8L 55.2654 37.5935L 47.1 28.8ZM 12 34.1C 12 26.7071 13.8675 21.1841 16.6791 17.7438C 19.1801 14.6837 23.4357 12 31.5 12L 31.5 -12C 17.2643 -12 5.76992 -6.83366 -1.90415 2.55623C -9.26749 11.5659 -12 23.0929 -12 34.1L 12 34.1ZM 31.5 12C 39.5643 12 43.8199 14.6837 46.3209 17.7438C 49.1325 21.1841 51 26.7071 51 34.1L 75 34.1C 75 23.0929 72.2675 11.5659 64.9041 2.55623C 57.2301 -6.83366 45.7357 -12 31.5 -12L 31.5 12ZM 51 34.1L 51 38L 75 38L 75 34.1L 51 34.1ZM 54.5147 29.5147L 53.2147 30.8147L 70.1853 47.7853L 71.4853 46.4853L 54.5147 29.5147ZM 61.7 27.3L 15.8 27.3L 15.8 51.3L 61.7 51.3L 61.7 27.3ZM 7.31473 30.8147L 6.01473 32.1147L 22.9853 49.0853L 24.2853 47.7853L 7.31473 30.8147ZM 2.5 40.6C 2.5 43.2056 3.0394 49.85 7.38297 56.2C 12.283 63.3635 20.7581 68.3 32.9 68.3L 32.9 44.3C 30.1745 44.3 28.7869 43.7854 28.1961 43.4887C 27.6393 43.2091 27.3764 42.9196 27.192 42.65C 26.9592 42.3097 26.76 41.845 26.628 41.3042C 26.4451 40.7538 26.5058 40.3227 26.5 40.6L 2.5 40.6ZM 32.9 68.3C 36.7184 68.3 41.8181 67.9788 46.6989 65.6878C 52.1498 63.1293 56.1379 58.7052 58.4649 52.7983L 36.1351 44.0017C 35.9416 44.4929 35.8504 44.5131 36.0091 44.3388C 36.1858 44.1449 36.3953 44.0118 36.5011 43.9622C 36.5559 43.9364 36.3634 44.0376 35.7364 44.1345C 35.0952 44.2335 34.1919 44.3 32.9 44.3L 32.9 68.3ZM 55.7853 56.8853L 57.0853 55.5853L 40.1147 38.6147L 38.8147 39.9147L 55.7853 56.8853ZM 48.6 59.1L 59.1 59.1L 59.1 35.1L 48.6 35.1L 48.6 59.1ZM 50.6147 55.5853L 51.9147 56.8853L 68.8853 39.9147L 67.5853 38.6147L 50.6147 55.5853ZM 48.4909 46.9255C 48.2243 49.0795 47.1842 51.1237 45.1134 52.7499C 43.0117 54.4004 39.1957 56.1 32.8 56.1L 32.8 80.1C 54.677 80.1 70.1175 67.5754 72.3091 49.8745L 48.4909 46.9255ZM 32.7462 56.1001C 24.3222 56.1379 19.6719 53.5319 16.9809 50.524C 14.0895 47.2921 12 41.9478 12 34.1L -12 34.1C -12 45.9522 -8.8395 57.6579 -0.90588 66.526C 7.22814 75.6181 18.9778 80.1621 32.8538 80.0999L 32.7462 56.1001ZM 60.5 27.5C 60.4899 25.0576 59.511 17.6637 55.8707 11.4978C 51.0825 4.28949 42.8171 -0.299999 31.4 -0.299999L 31.4 23.7C 33.8355 23.7 34.9714 24.1529 35.3538 24.3448C 35.6876 24.5124 35.7929 24.6472 35.8793 24.7772C 36.0189 24.9874 36.1997 25.3752 36.3342 25.9821C 36.4676 26.5841 36.5 27.1535 36.5 27.5L 60.5 27.5ZM 31.4 -0.299999C 20.0247 -0.299999 11.7482 4.23187 6.94039 11.4436C 3.29226 17.6042 2.31011 25.0076 2.3 27.5L 26.3 27.5C 26.3 27.1149 26.3346 26.5335 26.4673 25.933C 26.6011 25.3277 26.779 24.9524 26.9096 24.7564C 26.9863 24.6413 27.0829 24.512 27.4176 24.3451C 27.804 24.1524 28.9495 23.7 31.4 23.7L 31.4 -0.299999ZM 5.81472 35.9853L 7.11473 37.2853L 24.0853 20.3147L 22.7853 19.0147L 5.81472 35.9853ZM 15.6 40.8L 47.1 40.8L 47.1 16.8L 15.6 16.8L 15.6 40.8ZM 55.2654 37.5935L 56.6654 36.2935L 40.3346 18.7065L 38.9346 20.0065L 55.2654 37.5935Z"/>
<path id="path4_fill" fill-rule="evenodd" d="M 36.7 64.3L 35.4 65.6L 26.2 65.6L 24.9 64.3L 6.10352e-06 10.5L 6.10352e-06 1.3L 1.29999 4.76837e-08L 9.2 4.76837e-08L 10.5 1.3L 30.2 47.2L 31.5 47.2L 51.2 1.3L 52.5 4.76837e-08L 60.4 4.76837e-08L 61.7 1.3L 61.7 10.5L 36.7 64.3Z"/>
<path id="path5_stroke_2x" d="M 36.7 64.3L 45.1853 72.7853L 46.6873 71.2833L 47.5825 69.3569L 36.7 64.3ZM 35.4 65.6L 35.4 77.6L 40.3706 77.6L 43.8853 74.0853L 35.4 65.6ZM 26.2 65.6L 17.7147 74.0853L 21.2294 77.6L 26.2 77.6L 26.2 65.6ZM 24.9 64.3L 14.0098 69.3402L 14.906 71.2766L 16.4147 72.7853L 24.9 64.3ZM 6.10352e-06 10.5L -12 10.5L -12 13.1423L -10.8902 15.5402L 6.10352e-06 10.5ZM 6.10352e-06 1.3L -8.48532 -7.18524L -12 -3.67053L -12 1.3L 6.10352e-06 1.3ZM 1.29999 4.76837e-08L 1.29999 -12L -3.6706 -12L -7.18533 -8.48524L 1.29999 4.76837e-08ZM 9.2 4.76837e-08L 17.6853 -8.48529L 14.1706 -12L 9.2 -12L 9.2 4.76837e-08ZM 10.5 1.3L 21.5273 -3.43283L 20.6171 -5.55349L 18.9853 -7.18529L 10.5 1.3ZM 30.2 47.2L 19.1727 51.9328L 22.2918 59.2L 30.2 59.2L 30.2 47.2ZM 31.5 47.2L 31.5 59.2L 39.4082 59.2L 42.5273 51.9328L 31.5 47.2ZM 51.2 1.3L 42.7147 -7.18529L 41.0829 -5.55349L 40.1728 -3.43283L 51.2 1.3ZM 52.5 4.76837e-08L 52.5 -12L 47.5295 -12L 44.0147 -8.48529L 52.5 4.76837e-08ZM 60.4 4.76837e-08L 68.8853 -8.48529L 65.3706 -12L 60.4 -12L 60.4 4.76837e-08ZM 61.7 1.3L 73.7 1.3L 73.7 -3.67057L 70.1853 -7.18529L 61.7 1.3ZM 61.7 10.5L 72.5825 15.5569L 73.7 13.1519L 73.7 10.5L 61.7 10.5ZM 28.2147 55.8147L 26.9147 57.1147L 43.8853 74.0853L 45.1853 72.7853L 28.2147 55.8147ZM 35.4 53.6L 26.2 53.6L 26.2 77.6L 35.4 77.6L 35.4 53.6ZM 34.6853 57.1147L 33.3853 55.8147L 16.4147 72.7853L 17.7147 74.0853L 34.6853 57.1147ZM 35.7902 59.2598L 10.8902 5.45975L -10.8902 15.5402L 14.0098 69.3402L 35.7902 59.2598ZM 12 10.5L 12 1.3L -12 1.3L -12 10.5L 12 10.5ZM 8.48533 9.78524L 9.78531 8.48524L -7.18533 -8.48524L -8.48532 -7.18524L 8.48533 9.78524ZM 1.29999 12L 9.2 12L 9.2 -12L 1.29999 -12L 1.29999 12ZM 0.714732 8.48529L 2.01473 9.78529L 18.9853 -7.18529L 17.6853 -8.48529L 0.714732 8.48529ZM -0.527248 6.03283L 19.1727 51.9328L 41.2273 42.4672L 21.5273 -3.43283L -0.527248 6.03283ZM 30.2 59.2L 31.5 59.2L 31.5 35.2L 30.2 35.2L 30.2 59.2ZM 42.5273 51.9328L 62.2273 6.03283L 40.1728 -3.43283L 20.4728 42.4672L 42.5273 51.9328ZM 59.6853 9.78529L 60.9853 8.48529L 44.0147 -8.48529L 42.7147 -7.18529L 59.6853 9.78529ZM 52.5 12L 60.4 12L 60.4 -12L 52.5 -12L 52.5 12ZM 51.9147 8.48529L 53.2147 9.78529L 70.1853 -7.18529L 68.8853 -8.48529L 51.9147 8.48529ZM 49.7 1.3L 49.7 10.5L 73.7 10.5L 73.7 1.3L 49.7 1.3ZM 50.8176 5.4431L 25.8176 59.2431L 47.5825 69.3569L 72.5825 15.5569L 50.8176 5.4431Z"/>
<path id="path6_fill" fill-rule="evenodd" d="M 236.2 1.52588e-06L -1.52588e-06 1.52588e-06L -1.52588e-06 207.7L 106.8 314.5L 343 314.5L 343 106.8L 236.2 1.52588e-06Z"/>
<path id="path7_stroke_2x" d="M 236.2 1.52588e-06L 244.685 -8.48528L 241.171 -12L 236.2 -12L 236.2 1.52588e-06ZM -1.52588e-06 1.52588e-06L -1.52588e-06 -12L -12 -12L -12 1.52588e-06L -1.52588e-06 1.52588e-06ZM -1.52588e-06 207.7L -12 207.7L -12 212.671L -8.48528 216.185L -1.52588e-06 207.7ZM 106.8 314.5L 98.3147 322.985L 101.829 326.5L 106.8 326.5L 106.8 314.5ZM 343 314.5L 343 326.5L 355 326.5L 355 314.5L 343 314.5ZM 343 106.8L 355 106.8L 355 101.829L 351.485 98.3147L 343 106.8ZM 236.2 -12L -1.52588e-06 -12L -1.52588e-06 12L 236.2 12L 236.2 -12ZM -12 1.52588e-06L -12 207.7L 12 207.7L 12 1.52588e-06L -12 1.52588e-06ZM -8.48528 216.185L 98.3147 322.985L 115.285 306.015L 8.48528 199.215L -8.48528 216.185ZM 106.8 326.5L 343 326.5L 343 302.5L 106.8 302.5L 106.8 326.5ZM 355 314.5L 355 106.8L 331 106.8L 331 314.5L 355 314.5ZM 351.485 98.3147L 244.685 -8.48528L 227.715 8.48528L 334.515 115.285L 351.485 98.3147Z"/>
<path id="path8_fill" fill-rule="evenodd" d="M 20.7 30.9C 20.7 39.4 14 46.1 5.8 46.1L 1.19209e-08 46.1L 1.19209e-08 37.5L 5.8 37.5C 9.3 37.5 12.3 34.5 12.3 30.8L 12.3 1.49012e-09L 20.7 1.49012e-09L 20.7 30.9Z"/>
<path id="path9_fill" fill-rule="evenodd" d="M 19.9 46.1L 13.2 46.1C 7.4 46.1 2.6 42.2 0.799999 36.9L 8.7 34.1C 9.4 36.1 11.2 37.5 13.1 37.5L 19.8 37.5C 22.3 37.5 24.5 35.3 24.5 32.4C 24.5 28.7 20.3 28 15.3 27.1C 8.4 25.9 0 24.3 0 13.7C 0 6.3 5.8 1.49012e-09 13.1 1.49012e-09L 19.8 1.49012e-09C 25.6 1.49012e-09 30.4 3.9 32.2 9.2L 24.3 11.9C 23.6 9.9 21.8 8.5 19.9 8.5L 13.2 8.5C 10.7 8.5 8.5 10.7 8.5 13.6C 8.5 17.6 13.4 18 18.9 19.1C 25.6 20.4 33 22.3 33 32.3C 33.1 39.9 27.3 46.1 19.9 46.1Z"/>
<path id="path10_fill" fill-rule="evenodd" d="M 6.10352e-06 34.1C 6.10352e-06 15.7 9.20001 -1.52588e-06 31.5 -1.52588e-06C 53.8 -1.52588e-06 63 15.7 63 34.1L 63 38L 61.7 39.3L 15.8 39.3L 14.5 40.6C 14.5 43.2 15.8 56.3 32.9 56.3C 39.5 56.3 44.7 55 47.3 48.4L 48.6 47.1L 59.1 47.1L 60.4 48.4C 59.1 58.9 49.9 68.1 32.8 68.1C 10.5 68.2 6.10352e-06 53.8 6.10352e-06 34.1ZM 48.5 27.5C 48.5 23.6 47.2 11.7 31.4 11.7C 15.6 11.7 14.3 23.5 14.3 27.5L 15.6 28.8L 47.1 28.8L 48.5 27.5Z"/>
<path id="path11_fill" fill-rule="evenodd" d="M 57.7 67.1L 47.2 67.1L 45.9 65.8L 45.9 27.7C 45.9 21.1 43.3 11.9 31.5 11.9C 19.7 11.9 13.1 18.5 13.1 34.2L 13.1 65.7L 11.8 67L 1.30001 67L 3.05176e-06 65.7L 3.05176e-06 2.7L 1.30001 1.4L 10.5 1.4L 11.8 2.7L 13.1 7.9L 14.4 7.9C 14.4 7.9 19.6 1.52588e-06 32.8 1.52588e-06C 51.2 1.52588e-06 59.1 11.8 59.1 27.6L 59.1 65.7L 57.7 67.1Z"/>
<path id="path12_fill" fill-rule="evenodd" d="M 13.1 32.8L 11.8 31.5L 1.30001 31.5L -1.2207e-05 30.2L -1.2207e-05 21L 1.30001 19.7L 11.8 19.7L 13.1 18.4L 13.1 1.3L 14.4 -3.05176e-06L 24.9 -3.05176e-06L 26.2 1.3L 26.2 18.3L 27.5 19.6L 49.8 19.6L 51.1 20.9L 51.1 30.1L 49.8 31.4L 27.5 31.4L 26.2 32.7L 26.2 59C 26.2 72.1 32.8 74.7 39.3 74.7C 44.5 74.7 51.1 72.1 51.1 62.9L 51.1 60.3L 52.4 59L 62.9 59L 64.2 60.3L 64.2 62.9C 64.2 81.3 49.8 86.5 39.3 86.5C 24.9 86.5 13.1 78.6 13.1 58.9L 13.1 32.8Z"/>
<path id="path13_fill" fill-rule="evenodd" d="M 61.7 91.8L 1.3 91.8L 0 90.5L 0 81.3L 1.3 80L 26.2 80L 27.5 78.7L 27.5 13.1L 26.2 11.8L 7.8 11.8L 6.5 10.5L 6.5 1.3L 7.8 0L 39.3 0L 40.6 1.3L 40.6 78.7L 41.9 80L 61.7 80L 63 81.3L 63 90.5L 61.7 91.8Z"/>
<path id="path14_stroke_2x" d="M 61.7 91.8L 61.7 103.8L 66.6706 103.8L 70.1853 100.285L 61.7 91.8ZM 1.3 91.8L -7.18534 100.285L -3.67061 103.8L 1.3 103.8L 1.3 91.8ZM 0 90.5L -12 90.5L -12 95.4705L -8.48534 98.9852L 0 90.5ZM 0 81.3L -8.48534 72.8148L -12 76.3295L -12 81.3L 0 81.3ZM 1.3 80L 1.3 68L -3.67061 68L -7.18534 71.5148L 1.3 80ZM 26.2 80L 26.2 92L 31.1705 92L 34.6852 88.4853L 26.2 80ZM 27.5 78.7L 35.9852 87.1853L 39.5 83.6706L 39.5 78.7L 27.5 78.7ZM 27.5 13.1L 39.5 13.1L 39.5 8.1294L 35.9852 4.61467L 27.5 13.1ZM 26.2 11.8L 34.6852 3.31468L 31.1705 -0.199997L 26.2 -0.199997L 26.2 11.8ZM 7.8 11.8L -0.685291 20.2853L 2.82943 23.8L 7.8 23.8L 7.8 11.8ZM 6.5 10.5L -5.5 10.5L -5.5 15.4706L -1.98529 18.9853L 6.5 10.5ZM 6.5 1.3L -1.98529 -7.18527L -5.5 -3.67055L -5.5 1.3L 6.5 1.3ZM 7.8 0L 7.8 -12L 2.82943 -12L -0.685291 -8.48527L 7.8 0ZM 39.3 0L 47.7853 -8.48528L 44.2706 -12L 39.3 -12L 39.3 0ZM 40.6 1.3L 52.6 1.3L 52.6 -3.67056L 49.0853 -7.18528L 40.6 1.3ZM 40.6 78.7L 28.6 78.7L 28.6 83.6706L 32.1148 87.1853L 40.6 78.7ZM 41.9 80L 33.4148 88.4853L 36.9295 92L 41.9 92L 41.9 80ZM 61.7 80L 70.1853 71.5148L 66.6706 68L 61.7 68L 61.7 80ZM 63 81.3L 75 81.3L 75 76.3295L 71.4853 72.8148L 63 81.3ZM 63 90.5L 71.4853 98.9852L 75 95.4705L 75 90.5L 63 90.5ZM 61.7 79.8L 1.3 79.8L 1.3 103.8L 61.7 103.8L 61.7 79.8ZM 9.78534 83.3148L 8.48534 82.0148L -8.48534 98.9852L -7.18534 100.285L 9.78534 83.3148ZM 12 90.5L 12 81.3L -12 81.3L -12 90.5L 12 90.5ZM 8.48534 89.7852L 9.78534 88.4852L -7.18534 71.5148L -8.48534 72.8148L 8.48534 89.7852ZM 1.3 92L 26.2 92L 26.2 68L 1.3 68L 1.3 92ZM 34.6852 88.4853L 35.9852 87.1853L 19.0148 70.2147L 17.7148 71.5147L 34.6852 88.4853ZM 39.5 78.7L 39.5 13.1L 15.5 13.1L 15.5 78.7L 39.5 78.7ZM 35.9852 4.61467L 34.6852 3.31468L 17.7148 20.2853L 19.0148 21.5853L 35.9852 4.61467ZM 26.2 -0.199997L 7.8 -0.199997L 7.8 23.8L 26.2 23.8L 26.2 -0.199997ZM 16.2853 3.31473L 14.9853 2.01473L -1.98529 18.9853L -0.685291 20.2853L 16.2853 3.31473ZM 18.5 10.5L 18.5 1.3L -5.5 1.3L -5.5 10.5L 18.5 10.5ZM 14.9853 9.78528L 16.2853 8.48527L -0.685291 -8.48527L -1.98529 -7.18527L 14.9853 9.78528ZM 7.8 12L 39.3 12L 39.3 -12L 7.8 -12L 7.8 12ZM 30.8147 8.48528L 32.1147 9.78528L 49.0853 -7.18528L 47.7853 -8.48528L 30.8147 8.48528ZM 28.6 1.3L 28.6 78.7L 52.6 78.7L 52.6 1.3L 28.6 1.3ZM 32.1148 87.1853L 33.4148 88.4853L 50.3852 71.5147L 49.0852 70.2147L 32.1148 87.1853ZM 41.9 92L 61.7 92L 61.7 68L 41.9 68L 41.9 92ZM 53.2147 88.4852L 54.5147 89.7852L 71.4853 72.8148L 70.1853 71.5148L 53.2147 88.4852ZM 51 81.3L 51 90.5L 75 90.5L 75 81.3L 51 81.3ZM 54.5147 82.0148L 53.2147 83.3148L 70.1853 100.285L 71.4853 98.9852L 54.5147 82.0148Z"/>
<path id="path15_fill" fill-rule="evenodd" d="M 32.8 68.2C 13.1 68.2 6.10352e-06 55.1 6.10352e-06 34.1C 6.10352e-06 13.1 13.1 -3.05176e-06 32.8 -3.05176e-06L 34.1 -3.05176e-06C 53.8 -3.05176e-06 66.9 13.1 66.9 34.1C 66.9 55.1 53.8 68.2 34.1 68.2L 32.8 68.2ZM 34.1 56.4C 45.9 56.4 53.8 48.5 53.8 34.1C 53.8 19.7 45.9 11.8 34.1 11.8L 32.8 11.8C 21 11.8 13.1 19.7 13.1 34.1C 13.1 48.5 21 56.4 32.8 56.4L 34.1 56.4Z"/>
<path id="path16_fill" fill-rule="evenodd" d="M 32.8 68.3C 19.7 68.3 14.4 60.4 14.4 60.4L 13.1 60.4L 13.1 91.9L 11.8 93.2L 1.30001 93.2L 3.05176e-06 91.9L 3.05176e-06 2.7L 1.30001 1.4L 10.5 1.4L 11.8 2.7L 13.1 7.9L 14.4 7.9C 14.4 7.9 19.7 6.10352e-06 32.8 6.10352e-06C 51.2 6.10352e-06 61.7 14.4 61.7 34.1C 61.7 53.9 51.2 68.3 32.8 68.3ZM 31.5 11.9C 21 11.9 13.1 18.5 13.1 34.2C 13.1 49.9 21 56.5 31.5 56.5C 42 56.5 48.6 48.6 48.6 34.2C 48.6 19.8 42 11.9 31.5 11.9Z"/>
<path id="path17_fill" fill-rule="evenodd" d="M 73.5 11.8L 1.3 11.8L -6.10352e-06 10.5L -6.10352e-06 1.3L 1.3 0L 73.5 0L 74.8 1.3L 74.8 10.5L 73.5 11.8Z"/>
</defs>
</svg>
